<?xml version="1.0" ?><svg enable-background="new 0 0 32 32" version="1.1" viewBox="0 0 32 32" xml:space="preserve" xmlns="http://www.w3.org/2000/svg" xmlns:xlink="http://www.w3.org/1999/xlink"><g id="Glyph_NP_no_words"><path d="M11.89,16.988l0.6,0.801l6.397-4.784c0.921-0.683,1.12-1.994,0.444-2.923c-0.328-0.452-0.812-0.748-1.362-0.833   c-0.551-0.086-1.1,0.052-1.548,0.384l-6.274,4.646l0.596,0.803L11.89,16.988z"/><path d="M32,4.768l-0.494-0.006C26.744,4.71,22.179,4.73,18.15,4.748c-2.063,0.01-3.955,0.016-5.604,0.015l-0.002,1   c1.65,0.002,3.545-0.005,5.611-0.015C22.038,5.731,26.424,5.711,31,5.757v16.53H14.124v1H32V4.768z"/><path d="M7.91,12.831c1.13-0.856,1.777-2.163,1.777-3.585c0-2.472-1.995-4.483-4.448-4.483S0.79,6.774,0.79,9.246   s1.996,4.482,4.449,4.482C6.212,13.728,7.135,13.418,7.91,12.831z"/><path d="M0,18.805v8.466h2.667V15.56C1.267,16.056,0,17.033,0,18.805z"/><path d="M10.478,18.805c0-2.916-3.427-3.687-5.238-3.687c-0.45,0-1,0.048-1.572,0.164v11.988h6.811V18.805z"/></g></svg>